<?xml version="1.0" encoding="UTF-8"?><svg id="uuid-d506814d-6a46-47c9-a3f8-62a5c3fa52eb" xmlns="http://www.w3.org/2000/svg" xmlns:xlink="http://www.w3.org/1999/xlink" viewBox="0 0 703.52 224.62"><image width="1600" height="1597" transform="translate(2.56 3.77) scale(.14)" xlink:href="../../Documents/GTC/LOGO/GIMPA_(Ghana_Institute_of_Management_and_Public_Administration)_logo.png"/><path d="m274.91,76.08c-.58-2.51-2-4.26-4.26-5.25-1.26-.55-2.66-.82-4.21-.82-2.96,0-5.38,1.11-7.28,3.34-1.9,2.23-2.85,5.58-2.85,10.05s1.03,7.7,3.09,9.57c2.06,1.87,4.4,2.81,7.02,2.81s4.68-.74,6.32-2.21c1.64-1.48,2.66-3.41,3.04-5.8h-8.49v-6.13h15.29v19.7h-5.08l-.77-4.58c-1.48,1.74-2.8,2.96-3.98,3.67-2.03,1.24-4.52,1.86-7.47,1.86-4.86,0-8.85-1.68-11.95-5.05-3.24-3.38-4.86-8.01-4.86-13.89s1.63-10.7,4.91-14.28c3.27-3.58,7.59-5.38,12.97-5.38,4.67,0,8.41,1.18,11.24,3.55,2.83,2.37,4.45,5.32,4.87,8.85h-7.55Z" fill="#fff"/><path d="m296.9,101.33h-7.62v-36.71h7.62v36.71Z" fill="#fff"/><path d="m328.42,64.62h11.04v36.71h-7.15v-24.83c0-.71,0-1.71.02-3s.03-2.28.03-2.98l-6.96,30.8h-7.45l-6.91-30.8c0,.7,0,1.69.03,2.98.02,1.29.02,2.29.02,3v24.83h-7.15v-36.71h11.16l6.68,28.86,6.63-28.86Z" fill="#fff"/><path d="m371.19,85.44c-2.15,1.79-5.22,2.69-9.21,2.69h-7.64v13.2h-7.62v-36.71h15.76c3.63,0,6.53.95,8.69,2.84s3.24,4.82,3.24,8.79c0,4.33-1.07,7.4-3.22,9.19Zm-5.85-13.22c-.97-.81-2.33-1.22-4.08-1.22h-6.91v10.81h6.91c1.75,0,3.11-.44,4.08-1.32.97-.88,1.46-2.27,1.46-4.18s-.49-3.27-1.46-4.08Z" fill="#fff"/><path d="m387.3,64.62h8.68l12.99,36.71h-8.32l-2.42-7.55h-13.52l-2.49,7.55h-8.02l13.1-36.71Zm-.5,22.84h9.4l-4.64-14.44-4.76,14.44Z" fill="#fff"/><path d="m452.61,64.62v6.5h-10.98v30.21h-7.72v-30.21h-11.03v-6.5h29.73Z" fill="#fff"/><path d="m480.62,65.57c1.35.58,2.5,1.44,3.44,2.56.78.93,1.39,1.96,1.85,3.09.45,1.13.68,2.42.68,3.86,0,1.74-.44,3.46-1.32,5.14s-2.33,2.88-4.36,3.57c1.69.68,2.89,1.65,3.6,2.9.71,1.25,1.06,3.17,1.06,5.74v2.47c0,1.68.07,2.81.2,3.41.2.95.67,1.64,1.42,2.09v.92h-8.47c-.23-.81-.4-1.47-.5-1.97-.2-1.03-.31-2.08-.32-3.16l-.05-3.41c-.03-2.34-.44-3.9-1.21-4.68-.78-.78-2.23-1.17-4.37-1.17h-7.49v14.39h-7.5v-36.71h17.56c2.51.05,4.44.37,5.79.95Zm-15.85,5.43v9.86h8.25c1.64,0,2.87-.2,3.69-.6,1.45-.7,2.18-2.08,2.18-4.13,0-2.22-.7-3.72-2.1-4.48-.79-.43-1.97-.65-3.55-.65h-8.47Z" fill="#fff"/><path d="m504.42,64.62h8.68l12.99,36.71h-8.32l-2.42-7.55h-13.52l-2.49,7.55h-8.02l13.1-36.71Zm-.5,22.84h9.4l-4.64-14.44-4.76,14.44Z" fill="#fff"/><path d="m537.75,101.33h-7.62v-36.71h7.62v36.71Z" fill="#fff"/><path d="m544.8,64.62h8.04l14.57,25.59v-25.59h7.15v36.71h-7.67l-14.94-26.04v26.04h-7.15v-36.71Z" fill="#fff"/><path d="m588.75,101.33h-7.62v-36.71h7.62v36.71Z" fill="#fff"/><path d="m595.8,64.62h8.04l14.57,25.59v-25.59h7.15v36.71h-7.67l-14.94-26.04v26.04h-7.15v-36.71Z" fill="#fff"/><path d="m657.43,76.08c-.58-2.51-2-4.26-4.26-5.25-1.26-.55-2.66-.82-4.21-.82-2.96,0-5.38,1.11-7.28,3.34-1.9,2.23-2.85,5.58-2.85,10.05s1.03,7.7,3.09,9.57c2.06,1.87,4.4,2.81,7.02,2.81s4.68-.74,6.33-2.21,2.66-3.41,3.04-5.8h-8.49v-6.13h15.29v19.7h-5.08l-.77-4.58c-1.48,1.74-2.81,2.96-3.98,3.67-2.03,1.24-4.52,1.86-7.47,1.86-4.86,0-8.85-1.68-11.95-5.05-3.24-3.38-4.86-8.01-4.86-13.89s1.63-10.7,4.91-14.28,7.59-5.38,12.97-5.38c4.67,0,8.41,1.18,11.24,3.55,2.83,2.37,4.45,5.32,4.87,8.85h-7.55Z" fill="#fff"/><path d="m260.72,123.22h8.68l12.99,36.71h-8.32l-2.42-7.55h-13.52l-2.49,7.55h-8.02l13.1-36.71Zm-.5,22.84h9.4l-4.64-14.44-4.76,14.44Z" fill="#fff"/><path d="m286.93,123.22h8.04l14.57,25.59v-25.59h7.15v36.71h-7.67l-14.94-26.04v26.04h-7.15v-36.71Z" fill="#fff"/><path d="m345.4,124.02c2.58.85,4.66,2.4,6.26,4.66,1.28,1.83,2.15,3.8,2.62,5.93.47,2.13.7,4.15.7,6.08,0,4.88-.98,9.01-2.94,12.4-2.66,4.57-6.76,6.85-12.31,6.85h-15.83v-36.71h15.83c2.28.03,4.17.3,5.68.8Zm-14.06,5.58v23.96h7.08c3.62,0,6.15-1.78,7.58-5.35.78-1.96,1.17-4.29,1.17-7,0-3.74-.59-6.6-1.76-8.6-1.17-2-3.5-3-7-3h-7.08Z" fill="#fff"/><path d="m378.4,127.06c2.96-3.02,6.72-4.53,11.28-4.53,6.11,0,10.58,2.03,13.4,6.08,1.56,2.27,2.4,4.56,2.51,6.85h-7.67c-.49-1.76-1.12-3.09-1.88-3.98-1.37-1.59-3.39-2.39-6.07-2.39s-4.89,1.12-6.47,3.37c-1.58,2.25-2.37,5.43-2.37,9.55s.83,7.2,2.5,9.25c1.67,2.05,3.78,3.08,6.35,3.08s4.64-.88,6.02-2.64c.76-.95,1.4-2.37,1.9-4.26h7.62c-.66,4-2.34,7.26-5.04,9.76-2.7,2.51-6.16,3.76-10.38,3.76-5.22,0-9.33-1.69-12.32-5.08-2.99-3.4-4.48-8.07-4.48-14,0-6.41,1.7-11.35,5.1-14.82Z" fill="#fff"/><path d="m439.98,156.67c-2.77,2.86-6.78,4.28-12.03,4.28s-9.26-1.43-12.03-4.28c-3.72-3.5-5.58-8.55-5.58-15.14s1.86-11.77,5.58-15.14c2.77-2.85,6.78-4.28,12.03-4.28s9.25,1.43,12.03,4.28c3.7,3.37,5.55,8.42,5.55,15.14s-1.85,11.64-5.55,15.14Zm-4.79-5.58c1.78-2.24,2.68-5.43,2.68-9.56s-.89-7.3-2.68-9.55c-1.79-2.25-4.2-3.37-7.23-3.37s-5.46,1.12-7.27,3.36-2.71,5.43-2.71,9.56.91,7.32,2.71,9.56,4.23,3.36,7.27,3.36,5.45-1.12,7.23-3.36Z" fill="#fff"/><path d="m451.27,123.22h8.04l14.57,25.59v-25.59h7.15v36.71h-7.67l-14.94-26.04v26.04h-7.15v-36.71Z" fill="#fff"/><path d="m493.75,148.6c.24,1.68.7,2.93,1.4,3.76,1.27,1.51,3.45,2.27,6.53,2.27,1.85,0,3.35-.2,4.5-.6,2.19-.76,3.28-2.18,3.28-4.26,0-1.21-.54-2.15-1.61-2.81-1.07-.65-2.77-1.22-5.1-1.72l-3.97-.87c-3.91-.86-6.59-1.8-8.05-2.81-2.47-1.69-3.71-4.34-3.71-7.94,0-3.29,1.21-6.02,3.63-8.19,2.42-2.17,5.97-3.26,10.66-3.26,3.92,0,7.25,1.03,10.02,3.08,2.76,2.05,4.21,5.03,4.35,8.93h-7.37c-.14-2.21-1.12-3.78-2.96-4.71-1.23-.61-2.75-.92-4.57-.92-2.03,0-3.64.4-4.85,1.2-1.21.8-1.81,1.91-1.81,3.34,0,1.31.6,2.29,1.79,2.94.77.43,2.39.94,4.88,1.52l6.44,1.52c2.82.66,4.94,1.55,6.35,2.66,2.19,1.73,3.28,4.23,3.28,7.5s-1.3,6.14-3.89,8.35c-2.59,2.22-6.25,3.32-10.99,3.32s-8.63-1.09-11.4-3.27c-2.77-2.18-4.15-5.18-4.15-9h7.32Z" fill="#fff"/><path d="m522.24,123.22h7.79v22.54c0,2.52.3,4.36.89,5.52.93,2.06,2.94,3.09,6.05,3.09s5.1-1.03,6.03-3.09c.6-1.16.89-3,.89-5.52v-22.54h7.79v22.56c0,3.9-.6,6.94-1.81,9.11-2.25,3.98-6.55,5.98-12.9,5.98s-10.66-1.99-12.93-5.98c-1.21-2.17-1.81-5.21-1.81-9.11v-22.56Z" fill="#fff"/><path d="m559.07,123.22h7.67v30.11h18.33v6.6h-26v-36.71Z" fill="#fff"/><path d="m613.13,123.22v6.5h-10.98v30.21h-7.72v-30.21h-11.03v-6.5h29.73Z" fill="#fff"/><path d="m624.61,159.93h-7.62v-36.71h7.62v36.71Z" fill="#fff"/><path d="m631.66,123.22h8.04l14.57,25.59v-25.59h7.15v36.71h-7.67l-14.94-26.04v26.04h-7.15v-36.71Z" fill="#fff"/><path d="m693.29,134.68c-.58-2.51-2-4.26-4.26-5.25-1.26-.55-2.66-.82-4.21-.82-2.96,0-5.38,1.11-7.28,3.34-1.9,2.23-2.85,5.58-2.85,10.05s1.03,7.7,3.09,9.57c2.06,1.87,4.4,2.81,7.02,2.81s4.68-.74,6.33-2.21,2.66-3.41,3.04-5.8h-8.49v-6.13h15.29v19.7h-5.08l-.77-4.58c-1.48,1.74-2.81,2.96-3.98,3.67-2.03,1.24-4.52,1.86-7.47,1.86-4.86,0-8.85-1.68-11.95-5.05-3.24-3.38-4.86-8.01-4.86-13.89s1.63-10.7,4.91-14.28,7.59-5.38,12.97-5.38c4.67,0,8.41,1.18,11.24,3.55,2.83,2.37,4.45,5.32,4.87,8.85h-7.55Z" fill="#fff"/></svg>